<svg id="visual" viewBox="0 0 900 600" width="900" height="600" xmlns="http://www.w3.org/2000/svg" xmlns:xlink="http://www.w3.org/1999/xlink" version="1.1"><rect width="900" height="600" fill="#583dd2"></rect><g><g transform="translate(121 239)"><path d="M0 -149.9L129.8 -75L129.8 75L0 149.9L-129.8 75L-129.8 -75Z" stroke="#ddd9e6" fill="none" stroke-width="2"></path></g><g transform="translate(595 217)"><path d="M0 -124L107.4 -62L107.4 62L0 124L-107.4 62L-107.4 -62Z" stroke="#ddd9e6" fill="none" stroke-width="2"></path></g><g transform="translate(229 597)"><path d="M0 -147L127.3 -73.5L127.3 73.5L0 147L-127.3 73.5L-127.3 -73.5Z" stroke="#ddd9e6" fill="none" stroke-width="2"></path></g><g transform="translate(836 452)"><path d="M0 -130L112.6 -65L112.6 65L0 130L-112.6 65L-112.6 -65Z" stroke="#ddd9e6" fill="none" stroke-width="2"></path></g></g></svg>