<svg id="visual" viewBox="0 0 900 600" width="900" height="600" xmlns="http://www.w3.org/2000/svg" xmlns:xlink="http://www.w3.org/1999/xlink" version="1.1"><rect width="900" height="600" fill="#583dd2"></rect><g><g transform="translate(765 80)"><path d="M0 -149.9L129.8 -75L129.8 75L0 149.9L-129.8 75L-129.8 -75Z" fill="none" stroke="#FCAF3C" stroke-width="2"></path></g><g transform="translate(122 495)"><path d="M0 -139L120.4 -69.5L120.4 69.5L0 139L-120.4 69.5L-120.4 -69.5Z" fill="none" stroke="#FCAF3C" stroke-width="2"></path></g><g transform="translate(466 264)"><path d="M0 -127L110 -63.5L110 63.5L0 127L-110 63.5L-110 -63.5Z" fill="none" stroke="#FCAF3C" stroke-width="2"></path></g><g transform="translate(842 437)"><path d="M0 -131L113.4 -65.5L113.4 65.5L0 131L-113.4 65.5L-113.4 -65.5Z" fill="none" stroke="#FCAF3C" stroke-width="2"></path></g></g></svg>